<svg version="1.2" baseProfile="tiny-ps" xmlns="http://www.w3.org/2000/svg" viewBox="0 0 80 80" width="80" height="80">
	<title>New Project</title>
	<style>
		tspan { white-space:pre }
		.shp0 { fill: #599636 } 
		.shp1 { fill: #6cac48 } 
		.shp2 { fill: #c2bfbf } 
		.shp3 { mix-blend-mode: hue;fill: #231f1f } 
	</style>
	<path id="Layer" class="shp0" d="M36.19 6.19L38.04 9.67C38.46 10.31 38.91 10.88 39.44 11.41C39.83 11.79 40.21 12.19 40.59 12.58C40.97 12.98 41.34 13.38 41.7 13.79C42.06 14.2 42.42 14.62 42.77 15.04C43.11 15.46 43.46 15.89 43.79 16.33C46.93 20.45 49.05 25.03 50.56 29.98C51.47 33 51.96 36.1 51.99 39.24C52.15 48.62 48.93 56.67 42.45 63.37C42.19 63.63 41.92 63.89 41.64 64.15C41.37 64.4 41.09 64.65 40.8 64.89C40.52 65.14 40.23 65.37 39.94 65.6C39.64 65.84 39.35 66.06 39.04 66.28C38.4 66.28 38.1 65.79 37.83 65.33C37.71 65.12 37.6 64.91 37.5 64.69C37.4 64.47 37.31 64.24 37.23 64.02C37.15 63.79 37.08 63.56 37.03 63.32C36.97 63.09 36.92 62.85 36.89 62.61C36.66 61.48 36.51 60.34 36.58 59.17L36.58 58.64C36.53 58.53 35.96 6.46 36.19 6.19L36.19 6.19Z" />
	<path id="Layer" class="shp1" d="M36.19 6.07C36.11 5.92 36.04 6.04 35.96 6.11C36 6.87 35.73 7.55 35.32 8.19C34.86 8.84 34.26 9.33 33.66 9.86C30.29 12.77 27.65 16.29 25.53 20.22C22.7 25.51 21.25 31.19 20.84 37.16C20.65 39.32 21.52 46.92 22.2 49.11C24.05 54.93 27.38 59.81 31.69 64.05C32.75 65.07 33.88 66.01 35.05 66.92C35.4 66.92 35.43 66.62 35.51 66.39C35.55 66.27 35.58 66.15 35.62 66.03C35.65 65.91 35.68 65.79 35.71 65.66C35.74 65.54 35.76 65.42 35.79 65.29C35.81 65.17 35.83 65.04 35.85 64.92L36.61 59.25L36.19 6.07Z" />
	<path id="Layer" class="shp2" d="M38.04 68.58C38.12 67.72 38.53 67 38.99 66.28C38.53 66.09 38.19 65.71 37.93 65.29C37.87 65.2 37.82 65.09 37.77 64.99C37.71 64.89 37.66 64.79 37.62 64.68C37.57 64.58 37.53 64.47 37.48 64.37C37.44 64.26 37.4 64.16 37.37 64.05C36.84 62.46 36.72 60.79 36.57 59.17L36.57 58.19C36.38 58.34 36.34 59.62 36.34 59.81C36.32 60.24 36.28 60.67 36.24 61.1C36.2 61.53 36.15 61.95 36.09 62.38C36.03 62.8 35.97 63.23 35.9 63.65C35.83 64.08 35.75 64.5 35.66 64.92C35.55 65.6 35.47 66.28 35.05 66.88C35.05 66.96 35.05 67.04 35.09 67.15C35.77 69.15 35.96 71.2 36.07 73.28L36.07 74.04C36.07 74.94 36.04 74.75 36.79 75.06C37.09 75.17 37.43 75.21 37.74 75.43C37.96 75.43 38 75.24 38 75.09L37.89 73.84L37.89 70.36C37.85 69.76 37.96 69.15 38.04 68.59L38.04 68.58Z" />
	<path id="Layer" fill-rule="evenodd" class="shp3" d="M-316.25 337.1L-316.25 337.08C-246.67 336.51 -204.88 386.07 -208.85 465.33C-210.36 491.95 -211.88 498.57 -222.47 519.97C-235.54 546.62 -254.23 564.01 -276.74 570.83C-283.57 572.91 -289.21 575.38 -289.21 576.51C-289.21 577.63 -277.29 590.47 -262.54 605.22L-235.86 632.11L-275.98 632.11L-298.1 606.19C-316.08 585.2 -322.3 580.11 -331.59 578.59C-375.45 571.59 -401.74 553.05 -418 517.91C-431.99 481.96 -433.68 435.25 -418.17 399.51C-400.05 360 -369.04 339.77 -323.06 337.32C-320.81 337.32 -318.53 337.1 -316.25 337.1ZM-281.08 544.37L-281.06 544.35C-251 529.78 -235.3 494.61 -238.16 447.72C-241.79 391.56 -269.54 361.67 -318.34 361.67C-351.23 361.67 -373.74 376.63 -390.76 409.16C-401.35 429.59 -402.67 474.96 -393.41 499.55C-385.08 522.04 -366.56 541.9 -347.44 548.93C-328.94 555.71 -300.6 553.83 -281.08 544.37ZM411.94 404.8L411.94 404.85L425.39 404.85L425.39 433.56L414.98 430.52C399.47 426.19 383.43 435.25 374.1 453.42C367.34 466.67 366.73 472.33 366.73 520.76L366.73 573.71L337.63 573.71L337.63 408.03L366.75 408.03L366.75 435.66L373.56 425.04C382.24 411.62 395.12 404.8 411.94 404.8ZM240.82 403.29C280.73 402.55 308.14 431.3 308.14 476.84L308.14 499.18L190.71 499.18C193.16 516.01 198.47 530.75 210.55 543.05C229.48 559.14 253.12 559.14 284.5 545.48L298.31 538.32L298.31 564.39C298.31 564.39 291.11 567.64 284.5 570.46C245.73 584.44 216.99 582.36 185.22 556.3C169.72 539.45 163.47 523.38 163.47 491.24C162.13 452.86 184.1 415.56 223.07 405.37C229.09 404.05 235.14 403.29 240.85 403.29L240.82 403.29ZM193.36 475.93L193.36 475.93C193.36 475.93 193.36 475.93 193.36 475.93L193.36 475.93ZM193.39 475.72L280.92 475.72C280.92 475.72 278.45 447.91 263.7 436.57C256.53 431.09 247.83 428.27 239.11 428.27C230.42 428.27 221.53 430.91 213.78 436.38C198.51 446.96 193.83 473.08 193.39 475.72ZM193.36 475.72L193.36 475.93C193.36 475.9 193.37 475.83 193.39 475.72L193.36 475.72ZM-508.76 446.05L-508.75 446.03C-461.33 474.37 -448.81 492.52 -452.44 527.13C-456.6 563.99 -500.64 586.7 -549.04 577.05C-568.56 573.28 -581.57 567.81 -581.57 567.81C-581.57 567.81 -582.35 544.72 -580.84 535.07C-580.44 535.07 -573.07 538.69 -564.36 543.03C-522 564.39 -480.95 552.5 -480.95 518.46C-480.95 501.98 -494.18 486.86 -524.11 469.45C-577.41 438.44 -592.16 410.64 -575.5 373.77C-564.16 348.79 -539.96 336.52 -502.53 337.08C-478.13 337.47 -461.11 344.84 -461.11 344.84L-461.33 375.12C-492.12 358.09 -547.72 351.87 -552.63 396.87C-554.34 413.13 -540.33 426.92 -508.76 446.05ZM669.7 402.9L669.63 402.94C709.53 402.18 736.94 430.96 736.94 476.28L736.94 498.62L619.71 498.62C622.16 515.64 627.43 530.21 639.58 542.49C658.44 558.58 682.08 558.58 713.52 544.96L727.32 537.76L727.32 563.87C727.32 563.87 720.14 567.08 713.55 569.9C674.58 583.9 645.84 581.8 614.07 555.71C598.57 538.89 592.34 522.97 592.34 490.88C590.85 452.49 612.77 415.19 651.7 405C657.99 403.68 664.02 402.9 669.7 402.9ZM622.24 475.35L709.78 475.35C709.78 475.35 707.3 447.35 692.56 436.01C685.38 430.5 676.64 427.68 667.96 427.68C659.27 427.68 650.38 430.33 642.65 435.81C627.37 446.62 622.66 472.82 622.24 475.35ZM622.23 475.35L622.21 475.54C622.21 475.54 622.22 475.47 622.24 475.35L622.23 475.35ZM88.4 446.42L88.4 446.46C135.67 474.82 148.16 492.97 144.57 527.41C140.42 564.28 96.36 586.96 47.91 577.29C28.46 573.32 15.6 568.05 15.6 568.05C15.6 568.05 14.82 544.95 16.34 535.31C16.77 535.31 24.14 538.88 32.82 543.22C75.17 564.78 116.2 552.7 116.2 518.65C116.2 502.17 102.97 487.25 73.09 469.86C19.96 438.85 5.02 411.05 21.65 374.18C33.01 349.2 57.21 336.93 94.64 337.49C119.04 337.84 136.06 345.21 136.06 345.21L135.85 375.49C105.05 358.46 49.45 352.21 44.55 397.23C42.86 413.5 56.82 427.34 88.4 446.42L88.4 446.42ZM840.82 404.41L854.26 404.41L854.26 433.19L843.85 430.15C828.35 425.8 812.3 434.88 802.98 453.03C796.19 466.26 795.6 471.94 795.6 520.35L795.6 573.3L766.5 573.3L766.5 407.67L795.62 407.67L795.62 435.25L802.43 424.67C810.96 411.24 823.99 404.41 840.82 404.41L840.82 404.41ZM-143.2 445.46L-143.2 546.07L-49.09 546.07L-49.09 573.67L-172.56 573.67L-172.56 339.94L-143.2 339.94L-143.2 445.46L-143.2 445.46ZM535.81 478.36L535.79 478.38C549.02 441.13 561.71 407.86 561.71 407.86L590.44 407.86L557.15 491.61L524.47 573.67C515.21 573.67 505.93 573.88 496.67 573.67C475.31 519.22 454.12 463.05 434.65 407.84L464.7 407.84L488.34 478.01L511.61 541.34L535.81 478.36ZM-75.55 276.25L-75.55 276.21C-80.27 276.21 -84.22 274.69 -87.26 271.66C-90.46 268.66 -91.98 264.72 -91.98 259.94C-91.98 255.39 -90.51 251.44 -87.26 248.23C-84.05 245.03 -80.1 243.51 -75.33 243.51C-70.62 243.51 -66.87 245.03 -63.62 248.06C-60.41 251.1 -58.72 255.04 -58.72 259.77C-58.72 264.5 -60.41 268.27 -63.62 271.48C-66.87 274.74 -70.82 276.25 -75.55 276.25ZM-90.07 259.77C-90.07 263.93 -88.56 267.53 -85.74 270.35C-82.92 273.21 -79.51 274.52 -75.33 274.52C-71.21 274.52 -67.78 273.17 -64.92 270.35C-62.1 267.53 -60.58 263.93 -60.58 259.77C-60.58 255.61 -62.1 252.18 -64.92 249.36C-67.78 246.54 -71.21 245.24 -75.33 245.24C-79.71 245.24 -83.13 246.54 -85.95 249.36C-88.77 252.18 -90.07 255.61 -90.07 259.77ZM-78.95 261.29L-79.32 261.29L-79.32 270.18L-82.35 270.18L-82.35 248.99L-76.33 248.99C-73.64 248.99 -71.55 249.58 -70.25 250.66C-69.1 251.62 -68.56 252.92 -68.56 254.65C-68.56 256.15 -68.91 257.47 -69.86 258.44C-70.82 259.57 -72.14 260.14 -73.81 260.53C-72.48 260.9 -71.36 262.22 -70.21 264.5L-67.39 270.18L-70.97 270.18L-73.25 265.06C-74.37 262.59 -75.7 261.29 -77.04 261.29L-78.95 261.29ZM-78.99 251.44L-78.99 258.64L-75.74 258.64C-72.92 258.64 -71.4 257.49 -71.4 255.04C-71.4 253.7 -71.6 252.96 -72.31 252.4C-73.05 251.83 -74.39 251.44 -76.3 251.44L-78.99 251.44ZM-563.97 259.4L-564.12 259.44L-564.12 314.83L-573.4 314.83L-573.4 232.21L-560.54 232.21L-535.21 290.26C-533.33 294.42 -532 297.83 -531.44 300.06L-531.05 300.06C-529.36 295.55 -528.04 292.15 -527.08 289.87L-501.17 232.4L-489.07 232.4L-489.07 315.03L-498.72 315.03L-498.72 259.44C-498.72 255.09 -498.52 249.62 -497.96 243.33L-498.17 243.33C-499.11 246.95 -499.87 249.56 -500.63 251.29L-528.82 314.83L-533.54 314.83L-561.73 251.86C-562.49 249.97 -563.43 247.13 -564.18 243.31L-564.36 243.31C-564.18 246.54 -563.97 252.03 -563.97 259.4ZM-459.59 259.56L-459.59 311.01L-467.92 311.01L-467.92 259.56L-459.59 259.56ZM-463.78 240.69C-465.47 240.69 -466.81 240.1 -468.12 238.95C-469.44 237.82 -470.02 236.5 -470.02 234.62C-470.02 232.92 -469.26 231.41 -468.12 230.28C-466.99 229.13 -465.47 228.54 -463.78 228.54C-462.07 228.54 -460.57 229.13 -459.4 230.28C-458.08 231.41 -457.51 232.92 -457.51 234.62C-457.51 236.35 -458.27 237.82 -459.42 238.95C-460.55 240.1 -462.02 240.69 -463.76 240.69L-463.78 240.69ZM-400.22 312.14C-404.77 314.79 -410.04 316.13 -416.48 316.31C-424.81 316.31 -431.6 313.45 -436.91 307.81C-442.01 302.32 -444.46 295.14 -444.46 286.6C-444.46 276.99 -441.64 269.03 -436.17 263.18C-430.66 257.32 -423.29 254.29 -413.84 254.29C-408.72 254.29 -404.19 255.24 -400.22 257.32L-400.22 266.97C-404.58 263.94 -409.31 262.42 -414.23 262.42C-420.26 262.42 -425.18 264.5 -428.98 268.66C-432.92 273 -434.83 278.68 -434.83 285.84C-434.83 292.67 -432.92 298.16 -429.34 302.1C-425.74 306.09 -420.82 308.17 -414.75 308.17C-409.67 308.17 -404.77 306.48 -400.22 303.08L-400.22 312.14ZM-376.39 284.71L-376.58 284.71L-376.58 314.98L-386.04 314.98L-386.04 256L-376.6 256L-376.6 268.08L-376.39 268.08C-375.06 263.74 -372.81 260.33 -369.99 258.1C-367.32 255.99 -364.29 254.85 -360.88 254.85C-358.43 254.85 -356.55 255.04 -355.25 255.61L-355.25 265.45C-356.92 264.13 -359.19 263.55 -362.4 263.55C-366.2 263.55 -369.4 265.26 -372.05 268.66C-374.87 272.44 -376.39 277.92 -376.39 284.71ZM-322.11 316.15L-322.11 316.13C-330.98 316.13 -337.98 313.29 -343.27 307.61C-348.39 302.12 -350.82 294.75 -350.82 285.86C-350.82 275.64 -347.83 267.69 -342.15 262.05C-336.84 256.93 -329.68 254.28 -320.79 254.28C-311.9 254.28 -305.09 256.93 -300.19 262.41C-295.24 267.9 -292.81 275.28 -292.81 284.92C-292.81 294.38 -295.46 301.97 -300.75 307.61C-306.06 313.29 -313.22 316.15 -322.11 316.15ZM-340.85 285.3C-340.85 292.49 -339.13 297.96 -335.55 301.95C-331.95 305.92 -327.25 308.02 -321.18 308.02C-314.93 308.02 -310.2 305.92 -306.99 301.95C-303.78 298.15 -302.27 292.49 -302.27 285.3C-302.27 277.73 -303.96 272.07 -307.36 268.1C-310.75 264.3 -315.3 262.41 -321.37 262.41C-327.23 262.41 -331.95 264.3 -335.55 268.1C-339.33 272.28 -341.21 278.14 -340.85 285.3ZM-251.41 311.01L-251.46 311.04C-255.23 314.44 -260.72 316.15 -267.72 316.52C-273.19 316.52 -278.13 315.4 -282.25 312.92L-282.25 302.73C-277.7 306.5 -272.6 308.37 -266.92 308.37C-259.55 308.37 -255.77 305.53 -255.77 300.02C-255.77 297.78 -256.53 295.9 -258.22 294.38C-259.94 292.86 -263.15 290.98 -267.88 288.89C-272.82 286.84 -276.38 284.54 -278.46 282.28C-280.93 279.64 -282.23 276.04 -282.23 271.7C-282.23 266.8 -280.34 262.64 -276.38 259.42C-272.6 256.2 -267.48 254.53 -261.41 254.53C-256.68 254.53 -252.54 255.44 -248.73 257.34L-248.73 266.8C-252.71 263.96 -257.07 262.61 -262.17 262.61C-265.42 262.61 -267.85 263.35 -269.76 264.87C-271.62 266.38 -272.58 268.27 -272.58 270.72C-272.58 273.39 -271.65 275.28 -270.13 276.79C-268.61 278.12 -265.79 279.81 -261.24 281.72C-256.1 283.8 -252.54 285.86 -250.24 288.13C-247.42 290.98 -245.9 294.57 -245.9 298.91C-245.9 303.86 -247.81 307.81 -251.41 311.01ZM-206.39 254.28L-206.35 254.26C-197.68 254.26 -190.87 256.91 -185.75 262.4C-180.85 267.88 -178.38 275.25 -178.38 284.9C-178.38 294.36 -181.02 301.95 -186.33 307.59C-191.65 313.27 -198.59 316.13 -207.69 316.13C-216.59 316.13 -223.57 313.29 -228.88 307.61C-233.98 302.13 -236.43 294.75 -236.43 285.86C-236.43 275.65 -233.39 267.69 -227.75 262.05C-222.44 256.93 -215.29 254.28 -206.39 254.28ZM-188.05 285.3L-188.07 285.3C-188.07 277.73 -189.76 272.07 -192.8 267.9C-196.2 264.13 -200.91 262.22 -206.76 262.22C-212.64 262.22 -217.37 264.13 -220.95 267.9C-224.74 271.85 -226.63 277.71 -226.63 285.3C-226.63 292.49 -224.92 297.96 -221.34 301.95C-217.74 305.92 -213.03 308.02 -206.96 308.02C-200.71 308.02 -195.99 305.92 -192.78 301.95C-189.57 298.15 -188.05 292.49 -188.05 285.3ZM-162.5 314.81L-162.57 314.84L-162.57 263.96L-172.55 263.96L-172.55 256.03L-162.57 256.03L-162.57 246.35C-162.57 239.71 -160.47 234.81 -156.5 231.04C-153.09 227.83 -148.93 226.31 -143.83 226.31C-140.99 226.31 -138.71 226.49 -137.02 227.25L-137.02 235.77C-138.71 234.81 -140.99 234.25 -143.22 234.25C-149.86 234.25 -153.07 238.41 -153.07 246.69L-153.07 255.8L-139.26 255.8L-139.26 263.74L-153.07 263.74L-153.07 314.81L-162.5 314.81ZM-123.75 298.72L-123.77 298.7L-123.77 263.72L-133.97 263.72L-133.97 255.78L-123.77 255.78L-123.77 241.42C-120.76 240.47 -117.57 239.52 -114.32 238.39L-114.32 255.78L-99.36 255.78L-99.36 263.72L-114.32 263.72L-114.32 297C-114.32 300.95 -113.56 303.82 -112.21 305.51C-110.89 307.22 -108.63 307.98 -105.43 307.98C-103.15 307.98 -101.09 307.37 -99.36 306.07L-99.36 314.18C-101.63 315.53 -104.47 316.13 -108.25 316.13C-118.65 316.13 -123.75 310.26 -123.75 298.72ZM891.13 407.45L891.11 407.45C894.32 410.48 896.03 414.43 896.2 419.2C896.2 423.91 894.51 427.66 891.32 430.91C888.07 434.12 884.1 435.64 879.39 435.64C874.62 435.64 870.68 434.12 867.47 431.09C864.28 428.05 862.76 424.1 862.76 419.38C862.76 414.82 864.28 410.85 867.49 407.67C870.7 404.41 874.65 402.89 879.42 402.89C884.12 402.89 887.92 404.41 891.13 407.45ZM889.61 429.79C892.65 426.92 893.95 423.54 893.95 419.16C893.95 415.04 892.43 411.61 889.61 408.75C886.75 405.93 883.32 404.63 879.2 404.63C874.84 404.63 871.44 405.93 868.62 408.75C865.76 411.61 864.46 415.04 864.46 419.16C864.46 423.34 865.98 426.92 868.79 429.79C871.66 432.6 875.08 433.9 879.2 433.9C883.37 433.9 886.79 432.6 889.61 429.79ZM881.17 420.12C882.28 420.52 883.37 421.66 884.32 424.06L887.14 429.74L883.54 429.74L881.29 424.64C880.12 422.17 878.82 420.87 877.51 420.87L875.63 420.87L875.63 429.76L872.59 429.76L872.59 408.6L878.62 408.6C881.29 408.6 883.39 409.18 884.69 410.27C885.84 411.2 886.38 412.55 886.38 414.24C886.38 415.75 886.03 417.08 885.08 418.05C884.16 418.97 882.83 419.73 881.17 420.12ZM881.07 420.09L881.11 420.13C881.13 420.13 881.15 420.13 881.17 420.12C881.14 420.11 881.1 420.1 881.07 420.09ZM879.01 418.23C881.83 418.23 883.34 417.1 883.34 414.65C883.34 413.31 883.17 412.57 882.41 412C881.65 411.42 880.33 411.07 878.44 411.07L875.78 411.07L875.78 418.23L879.03 418.23L879.01 418.23ZM351.44 253.35L351.44 232.17L344.44 232.17L344.44 229.52L361.09 229.52L361.09 232.17L354.09 232.17L354.09 253.35L351.44 253.35ZM367.34 232.73C367.34 232.74 367.34 232.75 367.34 232.76C367.34 232.75 367.34 232.74 367.34 232.73ZM367.34 232.76C367.49 233.72 367.49 235.4 367.49 237.44L367.34 237.46L367.34 253.38L364.67 253.38L364.67 229.52L368.49 229.52L375.86 246.18C376.4 247.48 376.79 248.23 376.95 248.99L377.16 248.99C377.53 247.69 378.12 246.55 378.29 245.96L385.66 229.52L389.07 229.52L389.07 253.33L386.25 253.33L386.25 237.28C386.25 236.13 386.25 234.62 386.42 232.73C386.06 233.7 385.88 234.44 385.66 235.01L377.51 253.35L376.21 253.35L368.08 235.18C367.9 234.62 367.52 233.87 367.34 232.76Z" />
</svg>