<svg version="1.2" baseProfile="tiny-ps" xmlns="http://www.w3.org/2000/svg" viewBox="0 0 80 80" width="80" height="80">
	<title>New Project</title>
	<style>
		tspan { white-space:pre }
		.shp0 { fill: #ffffff } 
		.shp1 { fill: #00678c } 
		.shp2 { fill: #ce8b2c } 
	</style>
	<g id="Layer">
		<path id="Layer" fill-rule="evenodd" class="shp0" d="M0 0L80 0L80 80L0 80L0 0Z" />
		<path id="Layer" fill-rule="evenodd" class="shp1" d="M3.53 53.22L3.53 43.68C3.53 42.76 3.9 42.31 4.68 42.07C6.51 41.5 7.77 42 8.31 43.24L11.86 51.44L15.53 43.24C16.08 42 17.33 41.5 19.16 42.07C19.92 42.31 20.29 42.76 20.29 43.68L20.29 53.22L17.88 53.22L17.88 43.66L14.14 52C13.7 53 13.1 53.35 11.92 53.35C10.73 53.35 10.14 53 9.7 52L5.96 43.66L5.96 53.22L3.53 53.22ZM24.71 45.44L24.71 50.7C24.7 51 24.81 51.66 26.14 51.68C26.81 51.7 31.34 51.68 31.38 51.68L31.38 45.42L33.81 45.42C33.82 45.42 33.81 53.96 33.81 54C33.82 56.11 31.19 56.55 29.99 56.59L22.36 56.59L22.36 54.96C22.36 54.96 29.97 54.98 29.99 54.96C31.55 54.81 31.36 54.03 31.36 53.77L31.36 53.14L26.23 53.14C23.84 53.11 22.32 52.07 22.31 50.87C22.31 50.75 22.36 45.5 22.31 45.44L24.71 45.44ZM74.32 39.38C74.29 39 73.36 38.53 73.06 38.33C72.45 37.9 71.84 37.44 71.19 37.07C70.86 36.86 70.29 36.7 69.93 36.55C69.43 36.35 68.32 36.14 68.03 35.75C67.49 35.03 67.1 34.14 66.73 33.25C66.34 32.38 65.84 31.46 65.45 30.55C65.27 30.11 65.18 29.72 64.95 29.29C63.58 26.68 61.6 24.49 59.16 22.96C58.36 22.44 57.47 21.98 56.49 21.68C55.93 21.51 55.27 21.61 54.68 21.48L54.31 21.48C53.97 21.38 53.69 21.03 53.42 20.85C52.84 20.46 52.27 20.2 51.6 19.9C51.34 19.81 50.66 19.55 50.42 19.74C50.27 19.79 50.21 19.85 50.16 20C50.03 20.22 50.16 20.55 50.25 20.75C50.53 21.35 50.92 21.7 51.27 22.2C51.58 22.62 51.95 23.12 52.19 23.62C52.68 24.66 52.88 25.81 53.32 26.85C53.51 27.24 53.75 27.68 54.01 28.01C54.21 28.29 54.56 28.51 54.68 28.87C54.92 29.24 54.34 30.46 54.21 30.85C53.73 32.37 53.84 34.48 54.38 35.79C54.6 36.31 54.81 36.92 55.4 37.07C55.43 37.03 55.42 37.05 55.49 37.01C55.6 36.01 55.66 35.03 55.99 34.24C56.21 33.74 56.6 33.38 56.88 32.96C57.08 33.09 57.08 33.42 57.18 33.64C57.42 34.22 57.67 34.85 57.97 35.42C58.6 36.61 59.29 37.75 60.05 38.79C60.32 39.16 60.69 39.57 61.03 39.9C61.16 40.03 61.32 40.11 61.43 40.27L61.49 40.27L61.49 40.31C60.92 40.12 60.56 39.55 60.14 39.22C59.29 38.59 58.29 37.62 57.73 36.72C57.47 36.22 57.21 35.72 56.97 35.2L56.97 35.16C56.86 35.31 56.9 35.46 56.84 35.66C56.6 36.61 56.79 37.64 55.95 38C54.99 38.38 54.3 37.37 54.01 36.9C53.05 35.35 52.8 32.77 53.45 30.68C53.6 30.22 53.62 29.66 53.88 29.29C53.84 28.96 53.56 28.87 53.42 28.66C53.16 28.31 52.93 27.9 52.73 27.51C52.34 26.76 52.08 25.85 51.77 25.01C51.64 24.68 51.62 24.37 51.47 24.05C51.25 23.57 50.86 23.09 50.55 22.66C50.1 22.05 48.86 20.87 49.36 19.66C50.14 17.74 52.86 19.2 53.92 19.87C54.19 20.03 54.49 20.38 54.77 20.5C55.23 20.53 55.69 20.55 56.16 20.59C57.03 20.79 57.84 20.96 58.53 21.35C61.73 23.22 63.79 25.13 65.71 28.27C66.1 28.94 66.32 29.66 66.64 30.38C66.76 30.66 66.87 30.93 67 31.2C67.12 31.47 67.24 31.74 67.37 32.01C67.5 32.28 67.62 32.55 67.76 32.81C67.89 33.08 68.02 33.34 68.16 33.61C68.42 34.09 68.58 34.63 68.92 35.03C69.06 35.22 69.43 35.27 69.64 35.37C70.27 35.68 70.99 35.92 71.58 36.31C72.64 36.98 73.67 37.77 74.62 38.59C74.99 38.88 75.21 39.35 75.54 39.68L75.54 39.85C75.25 39.94 74.95 40.01 74.66 40.11C74.01 40.27 73.43 40.24 72.8 40.4C72.43 40.5 71.95 40.64 71.54 40.7C71.54 40.72 71.56 40.72 71.58 40.74C71.82 41.4 73.12 41.98 73.69 42.39C74.41 42.9 75.1 43.53 75.64 44.24L76.19 44.79C76.3 44.98 76.34 45.22 76.47 45.39L76.47 45.42C76.23 45.33 76.08 45.11 75.9 44.96C75.49 44.66 75.08 44.33 74.66 44.07C73.97 43.63 73.16 43.38 72.42 42.94C72.01 42.68 71.62 42.39 71.25 42.09C70.9 41.83 70.51 41.33 70.27 40.96C70.16 40.75 70.12 40.51 69.97 40.37C70.03 40.01 70.45 40.01 70.73 39.9C71.71 39.48 72.84 39.35 74.32 39.38Z" />
		<path id="Layer" fill-rule="evenodd" class="shp1" d="M55.43 23.29C55.37 23.29 55.31 23.3 55.24 23.3C55.18 23.3 55.12 23.31 55.05 23.32C54.99 23.32 54.93 23.33 54.86 23.35C54.8 23.36 54.74 23.37 54.68 23.39L54.68 23.42L54.73 23.42C54.88 23.72 55.14 23.92 55.32 24.18C55.45 24.48 55.6 24.77 55.73 25.07L55.79 25.02C56.05 24.85 56.16 24.55 56.16 24.09C56.06 23.98 56.05 23.85 55.95 23.72C55.82 23.53 55.6 23.44 55.43 23.29Z" />
		<path id="Layer" fill-rule="evenodd" class="shp2" d="M35.68 51.61L42.34 51.61C42.44 51.61 42.51 51.59 42.6 51.59C43.06 51.55 43.42 51.44 43.62 51.26C43.86 51.07 43.97 50.85 43.97 50.68L43.97 49.27C43.97 49.11 43.92 48.98 43.79 48.83C43.55 48.55 43.23 48.42 42.45 48.35C42.38 48.33 42.29 48.33 42.19 48.33L39.69 48.33C39.45 48.33 39.23 48.31 38.99 48.31C36.94 48.09 35.69 47.16 35.69 46.07L35.69 44.66C35.69 43.42 36.32 42.72 37.77 42.26C38.23 42.13 38.73 42.05 39.71 42.05L46.51 42.05L46.51 43.66L39.6 43.66C39.53 43.66 39.44 43.68 39.36 43.68C38.51 43.76 38.25 43.9 38.14 44.4C38.12 44.48 38.12 44.53 38.12 44.61L38.12 45.7C38.12 45.77 38.12 45.85 38.14 45.92C38.25 46.57 38.71 46.87 39.69 46.87L42.62 46.87C43.34 46.87 44.08 46.98 44.69 47.22C45.82 47.64 46.42 48.31 46.42 49L46.42 50.77C46.42 51.63 45.9 52.27 44.86 52.75C44.23 53.05 43.43 53.22 42.62 53.22L35.68 53.22L35.68 51.61ZM61.49 50.4L61.49 42.05L63.9 42.05L63.9 50.4C63.9 51.25 64.43 51.61 65.86 51.61L72.19 51.61L72.19 53.22L65.9 53.22C65.67 53.22 65.43 53.2 65.21 53.18C62.71 53 61.49 52.07 61.49 50.4L61.49 50.4ZM47.95 44.76C47.95 43.29 48.97 42.4 51.01 42.13C51.21 42.09 51.45 42.09 51.66 42.09L56.25 42.09C56.47 42.09 56.67 42.09 56.92 42.13C58.93 42.4 59.97 43.29 59.97 44.76L59.97 50.5C59.97 51.68 59.53 52.31 58.53 52.72L60.92 54.87L58.1 54.87L56.17 53.14L54.23 53.25L51.66 53.25C51.21 53.25 50.75 53.2 50.23 53.05C48.69 52.64 47.95 51.83 47.95 50.5L47.95 44.76ZM50.6 50.61C50.75 51.27 51.38 51.64 52.32 51.64L54.53 51.64L52.51 49.83L55.32 49.83L57.08 51.4C57.4 51.24 57.62 50.98 57.69 50.64C57.71 50.55 57.71 50.48 57.71 50.4L57.71 44.89C57.71 44.83 57.71 44.76 57.69 44.68C57.55 44.05 56.92 43.7 55.99 43.7L52.32 43.7C51.25 43.7 50.56 44.16 50.56 44.89L50.56 50.35L50.56 50.35C50.56 50.44 50.58 50.51 50.6 50.61ZM73.3 51.88L72.82 51.88L72.82 51.61L74.14 51.61L74.14 51.88L73.66 51.88L73.66 53.22L73.3 53.22L73.3 51.88ZM76.01 53.22L76.01 52L75.99 52L75.53 53.22L75.29 53.22L74.82 52L74.82 53.22L74.49 53.22L74.49 51.61L74.99 51.61L75.42 52.72L75.84 51.61L76.32 51.61L76.32 53.22L76.01 53.22Z" />
		<path id="Layer" fill-rule="evenodd" class="shp1" d="M4.07 31.96L5.95 31.96C6.4 31.96 6.71 32 6.94 32.07C7.21 32.18 7.44 32.37 7.62 32.66C7.79 32.94 7.88 33.29 7.88 33.7C7.88 34.26 7.73 34.7 7.45 35.03C7.18 35.39 6.7 35.55 6.01 35.55L4.73 35.55L4.73 38.03L4.07 38.03L4.07 31.96ZM6.03 34.85C6.44 34.85 6.73 34.76 6.92 34.57C7.1 34.39 7.2 34.11 7.2 33.74C7.2 33.5 7.14 33.29 7.05 33.13C6.96 32.94 6.84 32.83 6.71 32.77C6.58 32.7 6.34 32.68 6.01 32.68L4.73 32.68L4.73 34.85L6.03 34.85ZM9.21 32.7C9.68 32.14 10.23 31.87 10.92 31.87C11.36 31.87 11.77 31.98 12.12 32.24C12.49 32.48 12.77 32.85 12.99 33.31C13.2 33.79 13.31 34.35 13.31 35C13.31 35.9 13.1 36.64 12.7 37.2C12.23 37.83 11.64 38.14 10.92 38.14C10.18 38.14 9.58 37.81 9.14 37.18C8.73 36.61 8.53 35.9 8.53 35.07C8.53 34.05 8.75 33.26 9.21 32.7ZM9.71 36.83C10.03 37.24 10.44 37.46 10.92 37.46C11.4 37.46 11.81 37.24 12.12 36.83C12.46 36.4 12.62 35.79 12.62 34.98C12.62 34.46 12.53 34 12.36 33.59C12.23 33.27 12.05 33.02 11.79 32.83C11.73 32.78 11.66 32.74 11.59 32.71C11.52 32.67 11.45 32.65 11.38 32.62C11.3 32.6 11.23 32.58 11.15 32.57C11.07 32.56 11 32.55 10.92 32.55C10.42 32.55 10.01 32.76 9.7 33.16C9.36 33.59 9.21 34.22 9.21 35.09C9.21 35.83 9.38 36.42 9.71 36.83ZM14.99 38.03L13.68 31.96L14.34 31.96L15.1 35.94C15.2 36.35 15.25 36.77 15.33 37.18L15.55 36.07L16.51 31.96L17.29 31.96L17.99 35.03C18.04 35.21 18.08 35.39 18.11 35.57C18.15 35.74 18.19 35.92 18.22 36.1C18.26 36.28 18.29 36.46 18.32 36.64C18.35 36.82 18.37 37 18.4 37.18C18.45 36.79 18.53 36.35 18.64 35.87L19.42 31.96L20.1 31.96L18.73 38.03L18.08 38.03L17.03 33.4L16.86 32.7C16.83 32.96 16.77 33.2 16.73 33.4L15.66 38.03L14.99 38.03ZM20.71 31.96L24.31 31.96L24.31 32.68L21.36 32.68L21.36 34.53L24.12 34.53L24.12 35.26L21.36 35.26L21.36 37.33L24.42 37.33L24.42 38.03L20.71 38.03L20.71 31.96ZM25.32 31.96L27.53 31.96C27.99 31.96 28.34 32.01 28.55 32.13C28.77 32.24 28.95 32.44 29.1 32.7C29.23 32.96 29.31 33.27 29.31 33.61C29.31 34.07 29.2 34.44 28.95 34.74C28.71 35.01 28.36 35.2 27.9 35.27C28.08 35.39 28.23 35.5 28.32 35.61C28.53 35.85 28.7 36.11 28.84 36.39L29.71 38.03L28.88 38.03L28.21 36.77C27.95 36.27 27.77 35.94 27.64 35.77C27.51 35.61 27.38 35.5 27.25 35.42C27.14 35.37 26.97 35.33 26.75 35.33L25.99 35.33L25.99 38.03L25.32 38.03L25.32 31.96ZM27.4 34.64C27.71 34.64 27.95 34.61 28.1 34.53C28.27 34.46 28.4 34.33 28.49 34.18C28.58 34.01 28.62 33.83 28.62 33.63C28.62 33.31 28.55 33.07 28.36 32.89C28.18 32.72 27.92 32.63 27.57 32.63L25.99 32.63L25.99 34.64L27.4 34.64ZM30.36 38.03L30.36 31.96L33.95 31.96L33.95 32.68L31.03 32.68L31.03 34.53L33.77 34.53L33.77 35.26L31.03 35.26L31.03 37.33L34.08 37.33L34.08 38.03L30.36 38.03ZM34.97 31.96L36.69 31.96C37.12 31.96 37.44 32 37.66 32.07C37.95 32.16 38.19 32.35 38.42 32.61C38.62 32.87 38.79 33.18 38.92 33.57C39.03 33.96 39.08 34.42 39.08 34.96C39.08 35.64 38.99 36.24 38.79 36.72C38.58 37.2 38.32 37.53 38.01 37.74C37.69 37.94 37.27 38.03 36.77 38.03L34.97 38.03L34.97 31.96ZM36.69 37.33C37.12 37.33 37.44 37.26 37.66 37.11C37.88 36.98 38.05 36.76 38.18 36.44C38.32 36.03 38.4 35.53 38.4 34.96C38.4 34.35 38.32 33.85 38.16 33.5C37.99 33.14 37.77 32.9 37.51 32.79C37.34 32.72 37.06 32.68 36.68 32.68L35.64 32.68L35.64 37.33L36.69 37.33ZM42.1 31.96L43.97 31.96C44.36 31.96 44.66 32.01 44.88 32.14C45.1 32.26 45.29 32.44 45.42 32.68C45.56 32.94 45.64 33.2 45.64 33.51C45.64 33.79 45.56 34.03 45.45 34.26C45.32 34.48 45.16 34.66 44.94 34.79C45 34.82 45.07 34.85 45.13 34.89C45.2 34.92 45.26 34.97 45.32 35.01C45.38 35.06 45.43 35.11 45.48 35.16C45.53 35.21 45.58 35.27 45.62 35.33C45.79 35.59 45.86 35.9 45.86 36.27C45.86 36.64 45.79 36.96 45.64 37.24C45.49 37.51 45.29 37.72 45.03 37.85C44.79 37.98 44.44 38.03 43.99 38.03L42.1 38.03L42.1 31.96ZM43.84 34.51C44.12 34.51 44.32 34.5 44.44 34.46C44.62 34.4 44.75 34.29 44.84 34.16C44.94 34.03 44.97 33.85 44.97 33.61C44.97 33.39 44.94 33.2 44.86 33.05C44.77 32.9 44.66 32.81 44.51 32.76C44.38 32.7 44.12 32.68 43.77 32.68L42.77 32.68L42.77 34.51L43.84 34.51ZM44.01 37.33C44.27 37.33 44.47 37.29 44.6 37.26C44.65 37.24 44.69 37.22 44.73 37.19C44.77 37.17 44.81 37.14 44.85 37.11C44.88 37.08 44.92 37.04 44.95 37C44.98 36.97 45 36.93 45.03 36.89C45.14 36.74 45.18 36.51 45.18 36.27C45.18 36.03 45.14 35.85 45.05 35.68C44.95 35.53 44.82 35.4 44.66 35.33C44.51 35.26 44.25 35.22 43.92 35.22L42.77 35.22L42.77 37.33L44.01 37.33ZM48.16 35.46L46.25 31.96L47.05 31.96L48.03 33.79C48.07 33.88 48.12 33.96 48.16 34.05C48.21 34.13 48.25 34.22 48.3 34.31C48.34 34.39 48.38 34.48 48.42 34.57C48.47 34.65 48.51 34.74 48.55 34.83C48.69 34.5 48.86 34.14 49.08 33.76L50.05 31.96L50.8 31.96L48.82 35.46L48.82 38.03L48.16 38.03L48.16 35.46Z" />
	</g>
</svg>