<svg version="1.2" baseProfile="tiny-ps" xmlns="http://www.w3.org/2000/svg" viewBox="0 0 80 80" width="80" height="80">
	<title>New Project</title>
	<style>
		tspan { white-space:pre }
		.shp0 { fill: #ffffff } 
		.shp1 { fill: #0277bd } 
	</style>
	<path id="Layer" class="shp0" d="M73.91 48.77C73.59 47.35 72.31 45.7 69.72 45.7C69.19 45.7 68.61 45.77 67.95 45.9C66.74 46.15 65.71 46.27 64.8 46.32C71.86 34.29 76.45 17.58 71.91 11.78C65.93 4.14 57.88 3 53.61 3L53.21 3C51.62 3.03 49.98 3.22 48.32 3.58L42.2 4.91C41.36 4.8 40.51 4.73 39.63 4.71L39.58 4.71L39.55 4.71L39.29 4.71C36.57 4.71 34.09 5.29 31.88 6.37L29.74 5.53C26.8 4.37 22.38 2.99 18.01 2.99C17.76 2.99 17.52 3 17.27 3.01C12.96 3.16 9.26 4.8 6.57 7.73C3.21 11.4 1.68 16.76 2.02 23.67C2.04 24.03 6.22 59.38 18.08 59.38L18.12 59.38L18.23 59.38C19.77 59.34 21.23 58.72 22.61 57.54C23.65 58.32 25.01 58.79 26.27 58.97C27.1 59.17 28.6 59.45 30.4 59.45C32.59 59.45 34.57 59 36.28 58.18C36.27 59.69 36.27 61.59 36.25 64.02L36.25 64.15L36.26 64.28C36.42 66.7 36.84 68.89 37.47 70.6C39.27 75.49 42.37 78.18 46.2 78.18C46.36 78.18 46.52 78.17 46.69 78.16C49.84 77.97 53.04 76.19 55.23 73.43C57.61 70.43 58.16 67.26 58.38 64.84L58.39 64.69L58.39 64.54L58.39 57.57L58.57 57.59L59.31 57.65L59.38 57.66L59.45 57.67C59.67 57.68 59.88 57.68 60.11 57.68C62.68 57.68 65.85 57.01 67.99 56.01C70.04 55.07 74.72 52.45 73.91 48.77Z" />
	<path id="Layer" class="shp1" d="M54.97 55.96C54.97 55.61 54.99 55.32 55 55C54.99 54.57 54.97 54.25 54.97 54.25C54.97 54.25 54.99 54.24 55.03 54.21C55.28 49.65 56.54 47.89 57.89 46.89C57.7 46.62 57.48 46.34 57.28 46.07C56.71 45.33 56 44.4 55.25 43.21L55.11 42.95C54.99 42.66 54.71 42.18 54.36 41.55C52.34 37.89 48.14 30.29 51.01 25.48C52.27 23.38 54.64 22.16 58.05 21.87C56.66 17.9 51.43 8.33 39.57 8.13C39.57 8.13 39.57 8.13 39.56 8.13C29.24 7.96 25.85 17.34 24.75 22.94C26.27 22.3 28.01 21.91 29.59 21.91C29.62 21.91 29.64 21.91 29.67 21.91C33.58 21.94 36.27 24.02 37.05 27.64C37.62 30.29 37.9 32.61 37.89 34.73C37.88 39.38 36.94 41.82 36.11 43.98L35.85 44.67C35.64 45.24 35.41 45.77 35.2 46.27C34.99 46.78 34.8 47.23 34.66 47.64C35.49 47.83 36.13 48.1 36.58 48.29L36.84 48.4C36.92 48.44 37 48.48 37.07 48.52C38.52 49.4 39.42 50.76 39.62 52.34C39.72 53.19 39.7 58.99 39.67 64.05C39.82 66.24 40.19 68.09 40.68 69.42C41.38 71.32 43.13 74.96 46.48 74.75C48.82 74.6 51.07 73.18 52.56 71.3C54.16 69.28 54.75 67.05 54.98 64.54L54.98 55.96L54.97 55.96Z" />
	<path id="Layer" class="shp1" d="M24.42 47.28C21.66 44.4 20.32 40.53 20.83 36.93C21.31 33.46 21.04 30.05 20.89 28.22C20.84 27.61 20.81 27.16 20.81 26.91C20.81 26.89 20.81 26.88 20.81 26.87C20.81 26.86 20.81 26.86 20.81 26.85C21.02 21.69 23.01 13.55 28.49 8.71C25.82 7.66 21.47 6.27 17.39 6.42C11 6.65 4.81 11.07 5.43 23.5C5.67 28.17 10.94 56.14 18.14 55.96C19.17 55.93 20.24 55.27 21.34 53.95C23.08 51.86 24.77 49.97 25.97 48.65C25.43 48.24 24.91 47.79 24.42 47.28ZM61.85 23.04C61.87 23.31 61.85 23.53 61.81 23.74C61.86 25.31 61.69 26.84 61.52 28.31C61.39 29.4 61.26 30.52 61.23 31.65C61.19 32.75 61.35 33.84 61.51 34.99C61.9 37.69 62.3 40.73 60.2 44.28C60.59 44.78 60.93 45.25 61.2 45.71C69.07 32.94 72.25 17.76 69.22 13.89C64.63 8.03 58.29 6.34 53.26 6.42C51.69 6.45 50.26 6.66 49.04 6.92C57.71 11.13 61.57 20.13 61.85 23.04ZM68.64 49.25C64.09 50.19 61.9 49.69 60.83 49.03C60.66 49.16 60.49 49.26 60.33 49.36C59.7 49.74 58.69 50.35 58.45 54.11C58.59 54.14 58.71 54.15 58.87 54.19L59.61 54.25C61.86 54.35 64.82 53.72 66.55 52.92C70.28 51.19 72.32 48.49 68.64 49.25ZM36.22 52.75C36.16 52.24 35.88 51.83 35.38 51.5L35.2 51.42C34.58 51.14 33.88 50.84 32.77 50.84L32.76 50.84C32.54 50.85 32.33 50.87 32.11 50.87C32.02 50.87 31.93 50.86 31.85 50.85C31.04 51.48 29.88 51.96 27.04 52.54C21.94 53.84 24.95 55.37 26.9 55.61C28.79 56.08 33.28 56.66 36.26 54.23C36.26 53.46 36.24 52.93 36.22 52.75Z" />
	<path id="Layer" class="shp1" d="M33.93 29.48C33.43 30 32.64 30.45 31.77 30.31C30.36 30.08 29.27 28.38 29.35 27.73L29.35 27.73C29.43 27.1 30.64 26.76 32.05 26.99C32.54 27.07 32.98 27.21 33.36 27.38C32.81 26.21 31.82 25.53 30.32 25.36C27.64 25.06 24.81 26.46 24.24 27.24C24.25 27.42 24.27 27.66 24.29 27.95C24.45 29.91 24.74 33.56 24.21 37.41C23.85 39.94 24.88 42.82 26.88 44.91C28.18 46.26 29.69 47.12 31.18 47.37C31.37 46.55 31.7 45.76 32.05 44.94C32.25 44.48 32.45 44 32.64 43.48L32.92 42.75C33.68 40.78 34.46 38.74 34.47 34.72C34.48 33.17 34.29 31.41 33.93 29.48ZM58.13 35.47C57.95 34.23 57.77 32.94 57.81 31.54C57.85 30.27 57.99 29.08 58.13 27.92C58.23 27.01 58.31 26.13 58.36 25.27C56.16 25.45 54.7 26.09 54 27.16C54.29 27.07 54.62 26.99 54.98 26.94C56.5 26.75 57.61 27.18 57.74 28.03C57.83 28.65 57.31 29.24 57.08 29.46C56.6 29.92 56.01 30.22 55.4 30.29C55.29 30.31 55.18 30.31 55.07 30.31C54.47 30.31 53.89 30.11 53.45 29.8C53.64 33.17 56.13 37.68 57.35 39.89C57.61 40.37 57.81 40.74 57.98 41.07C58.65 39.16 58.41 37.41 58.13 35.47Z" />
</svg>