<svg version="1.2" baseProfile="tiny-ps" xmlns="http://www.w3.org/2000/svg" viewBox="0 0 80 80" width="80" height="80">
	<title>New Project</title>
	<defs>
		<linearGradient id="grd1" gradientUnits="userSpaceOnUse"  x1="20.389" y1="68.134" x2="25.383" y2="65.183">
			<stop offset="0" stop-color="#909ca9"  />
			<stop offset="1" stop-color="#ededee"  />
		</linearGradient>
		<linearGradient id="grd2" gradientUnits="userSpaceOnUse"  x1="20.503" y1="12.509" x2="24.521" y2="12.509">
			<stop offset="0" stop-color="#939fab"  />
			<stop offset="1" stop-color="#dcdee1"  />
		</linearGradient>
		<radialGradient id="grd3" gradientUnits="userSpaceOnUse"  cx="40.777" cy="30.935" r="5.18">
			<stop offset="0" stop-color="#ee352c"  />
			<stop offset="1" stop-color="#a91d22"  />
		</radialGradient>
	</defs>
	<style>
		tspan { white-space:pre }
		.shp0 { mix-blend-mode: hue;fill: url(#grd1) } 
		.shp1 { mix-blend-mode: hue;fill: url(#grd2) } 
		.shp2 { mix-blend-mode: hue;fill: url(#grd3) } 
		.shp3 { mix-blend-mode: hue;fill: #231f1f } 
	</style>
	<g id="Layer" style="mix-blend-mode: hue">
		<path id="Layer" fill-rule="evenodd" class="shp0" d="M49.78 38.19L49.78 38.19L49.78 38.19L50.12 39C48.42 39.5 48.29 39.54 48.25 39.57C48.23 39.58 48.24 39.78 48.28 40C48.54 41.49 48.71 43.01 48.81 44.89C48.87 46.04 48.84 49.43 48.76 50.44C48.48 54.07 48.05 57.12 47.51 59.42C46.6 63.21 44.93 67.65 42.62 72.37C41.94 73.76 41.35 74.88 41.27 74.93C41.23 74.96 40.2 74.96 39.44 74.93C35.67 74.79 28.83 73.81 25.29 72.92C23.16 72.38 20.33 71.43 18.65 70.69C15.35 69.24 12.52 67.11 11.1 65.03C10 63.39 9.72 61.61 10.29 59.86C10.61 58.89 11.37 57.63 12.31 56.44C12.95 55.64 14.2 54.39 15.05 53.72C15.81 53.12 16.8 52.28 17.87 51.36C18.84 50.53 19.74 49.7 20.59 48.89L23.95 48L35.97 42.7L49.78 38.19L49.78 38.19ZM46.62 40.04C46.51 40.04 43.06 41.14 41.61 41.63C40.76 41.93 40.75 41.94 40.85 42.01C41.17 42.26 43.15 43.58 44.19 44.23C45.39 44.99 47.07 45.98 47.16 45.98C47.18 45.98 47.19 45.7 47.17 45.27C47.08 43.24 46.75 40.04 46.62 40.04ZM39.59 42.35C39.58 42.35 39.57 42.35 39.59 42.34C39.49 42.38 39.49 42.38 39.48 43.42C39.46 45.53 39.07 48.16 38.37 50.76C38.28 51.07 38.22 51.33 38.24 51.33C38.25 51.33 38.68 51.15 39.19 50.92C42.09 49.64 44.46 48.37 46.36 47.07C47.25 46.47 47.21 46.53 46.82 46.36C45.57 45.82 42.65 44.19 40.5 42.85C39.92 42.49 39.68 42.35 39.59 42.35ZM32.43 45.11C32.4 45.14 32.77 46.06 33.01 46.53C33.48 47.45 34.12 48.39 34.93 49.33C35.4 49.87 36.83 51.27 36.88 51.22C36.9 51.2 37 50.87 37.12 50.49C37.6 48.89 37.89 47.47 38.08 45.95C38.16 45.31 38.2 42.97 38.14 42.91C38.1 42.87 32.6 45 32.43 45.11ZM31.31 45.59C31.28 45.59 31.21 45.61 31.13 45.63C31 45.71 30.95 45.76 30.9 45.9C30.87 46.01 30.7 46.47 30.52 46.93C29.47 49.58 27.62 53.32 26.4 55.24C26.12 55.66 26.09 55.72 26.19 55.68C26.33 55.64 26.48 55.59 26.63 55.54C26.77 55.49 26.92 55.44 27.07 55.4C27.22 55.35 27.36 55.3 27.51 55.25C27.66 55.2 27.8 55.16 27.95 55.11C30.41 54.32 32.56 53.57 34.54 52.81C36.24 52.17 36.22 52.18 36.15 52.11C36.12 52.08 35.89 51.88 35.64 51.68C34.87 51.02 33.94 50.02 33.23 49.08C32.58 48.22 31.83 46.88 31.5 45.98C31.44 45.79 31.36 45.62 31.34 45.6C31.33 45.59 31.32 45.59 31.31 45.59ZM29.22 46.46C29.18 46.42 24.86 48.44 23.53 49.12C23.21 49.28 23.22 49.26 23.09 49.91C22.91 50.79 22.88 52.21 23.03 53.02C23.19 53.85 23.48 54.74 23.84 55.44C24.01 55.77 24.03 55.79 24.08 55.72C24.11 55.67 24.35 55.3 24.6 54.89C26.08 52.53 27.19 50.59 28.2 48.62C28.72 47.59 29.26 46.48 29.22 46.46ZM47.06 47.31C46.85 47.5 45.89 48.19 45.26 48.62C43.56 49.76 41.59 50.9 39.55 51.97C39.04 52.24 38.6 52.47 38.59 52.48C38.54 52.52 40.02 53.43 41.03 53.98C42.56 54.83 44.26 55.55 45.83 56.04C46.19 56.14 46.49 56.23 46.49 56.23C46.5 56.22 46.55 55.88 46.61 55.48C46.98 53.15 47.23 49.95 47.23 47.63L47.23 47.19L47.06 47.31ZM21.34 50.28C21.33 50.28 21.32 50.28 21.32 50.29C21.2 50.33 19.56 51.24 18.49 51.84C17.01 52.69 16.15 53.35 15.06 54.47C13.43 56.16 12.26 58.17 12.02 59.7C11.99 59.88 12 59.89 12.07 59.87C12.12 59.86 12.68 59.7 13.33 59.52C15.5 58.93 22.41 56.91 22.48 56.84C22.49 56.83 22.32 56.48 22.12 56.05C21.36 54.5 21.11 53.38 21.2 51.85C21.22 51.51 21.27 51.01 21.31 50.74C21.37 50.36 21.39 50.28 21.34 50.28ZM37.63 53.19C37.62 53.2 37.56 53.38 37.48 53.58C36.81 55.64 35.5 58.62 34.19 61.06C33.95 61.51 33.76 61.87 33.76 61.88C33.76 61.89 33.88 61.86 34 61.81C34.13 61.76 34.8 61.51 35.48 61.26C40.14 59.51 44.7 57.61 46.09 56.84L46.43 56.65L46.19 56.6C43.53 55.99 40.42 54.79 38.19 53.49C37.89 53.31 37.64 53.18 37.63 53.19ZM35.97 53.73C35.96 53.73 35.62 53.87 35.22 54.03C32.34 55.27 29.45 56.27 26.05 57.2L25.1 57.46L25.29 57.69C26.57 59.31 28.54 60.98 30.75 62.33C31.12 62.56 31.44 62.75 31.45 62.75C31.46 62.75 31.78 62.2 32.17 61.51C33.69 58.82 34.88 56.41 35.79 54.21C35.89 53.96 35.98 53.74 35.97 53.73ZM46.28 57.33C46.25 57.33 46.09 57.4 45.89 57.52C44.2 58.53 39.28 60.89 34.53 62.97C33.73 63.31 33.11 63.61 33.13 63.63C33.19 63.68 34.23 64.15 34.96 64.44C37.57 65.48 40.35 66.27 43.45 66.83C43.51 66.85 43.58 66.86 43.59 66.86C43.6 66.86 43.82 66.21 44.07 65.41C44.64 63.61 44.95 62.58 45.32 61.28C45.76 59.72 46.29 57.57 46.28 57.33ZM22.47 58.15C22.46 58.15 21.97 58.26 21.36 58.41C20.76 58.55 19.08 58.95 17.63 59.28C15.02 59.89 12.23 60.55 12.07 60.59C11.97 60.62 11.97 60.87 12.09 61.37C12.33 62.45 12.93 63.63 13.83 64.74C14.26 65.29 15.22 66.27 15.77 66.73L16.24 67.12L16.68 66.45C16.92 66.07 17.35 65.44 17.63 65.05C17.91 64.65 18.66 63.59 19.31 62.68C21.17 60.08 22.49 58.17 22.47 58.15ZM21.96 60.88C19.28 64.12 18.05 65.67 17.06 67.09L16.76 67.53L16.95 67.67C17.05 67.74 17.15 67.8 17.16 67.8C17.17 67.8 18.54 67.33 20.2 66.75C23.15 65.72 29.53 63.46 29.6 63.41C29.62 63.4 29.37 63.23 29.04 63.04C27.18 61.96 25.64 60.71 24.14 59.03L23.81 58.66L21.96 60.88ZM31.5 65.58C30.26 67.48 28.76 69.48 27.26 71.28C26.96 71.63 26.71 71.96 26.71 71.98C26.71 72.02 27.05 72.11 27.16 72.09C27.2 72.08 27.91 71.88 28.73 71.64C33.2 70.36 38.68 68.74 40.48 68.18C41.6 67.82 43.14 67.31 43.21 67.27C43.25 67.24 43.13 67.22 42.9 67.2C41.38 67.07 38.82 66.63 37.04 66.18C35.6 65.82 34.53 65.5 33.17 64.98C32.61 64.78 32.15 64.61 32.14 64.62C32.14 64.63 31.84 65.06 31.5 65.58ZM29.73 64.83C28.07 65.35 25.53 66.07 20.96 67.31C19.24 67.78 17.81 68.17 17.78 68.18C17.7 68.2 18.74 68.87 19.58 69.32C20.25 69.67 21.15 70.09 22.01 70.43C22.71 70.71 25.35 71.64 25.73 71.75L25.88 71.79L26.19 71.26C26.36 70.96 26.68 70.44 26.89 70.11C27.11 69.76 27.72 68.78 28.27 67.92C29.57 65.87 30.31 64.68 30.3 64.67C30.29 64.66 30.03 64.73 29.73 64.83ZM42.63 67.99C40.57 68.95 38.53 69.73 36.48 70.36C34.85 70.86 33.24 71.27 29.9 72.02L28.35 72.37L28.6 72.43C29.69 72.68 34.06 73.44 36.66 73.84C38.15 74.05 40.6 74.4 40.78 74.41C40.85 74.42 40.9 74.34 41.04 74C41.66 72.52 43.35 67.82 43.3 67.72L43.29 67.72C43.22 67.73 42.95 67.84 42.63 67.99Z" />
		<path id="Layer" fill-rule="evenodd" class="shp1" d="M35.54 6L35.54 6L35.54 6C35.65 6.01 35.67 6.05 35.85 6.76C36.18 7.93 36.76 9.56 37.38 10.97C38.17 12.78 39.53 15.48 40.76 17.65L41 18.08L42.19 18.26C42.22 18.26 42.24 18.27 42.27 18.27L42.18 19.06L33.12 17.5L25.2 16.08L21.87 15.02L20.47 13.69C20.47 13.57 20.49 13.44 20.53 13.34C20.64 13.06 21.36 12.34 21.94 11.93C23.48 10.84 25.99 9.59 29.21 8.28C31.6 7.3 35.31 5.97 35.54 6L35.54 6ZM35.37 6.53C35.08 6.58 31.16 8.22 29.73 8.88C28.61 9.4 26.07 10.73 26.11 10.77C26.11 10.78 26.58 10.85 27.14 10.93C30.59 11.41 35.36 12.23 36.43 12.52C36.87 12.66 36.87 12.72 36.49 11.57C35.98 10.05 35.65 8.64 35.48 7.18C35.43 6.84 35.39 6.54 35.38 6.53L35.37 6.53ZM25.31 11.21L25.85 11.7C26.41 12.22 27.85 13.6 29.68 15.38L30.73 16.41L31.14 16.47C31.37 16.5 31.59 16.54 31.64 16.54C31.68 16.54 31.98 16.38 32.31 16.17C33.44 15.47 35.07 14.56 36.55 13.82C36.93 13.64 37.22 13.48 37.21 13.47C37.2 13.47 36.91 13.44 36.56 13.41C33.49 13.16 27.93 12.1 25.72 11.34L25.31 11.21ZM24.76 11.63C23.25 12.69 22.37 13.73 22.36 14.43L22.36 14.58L22.93 14.77C23.63 14.99 24.1 15.11 25.24 15.37C26.34 15.62 28.43 16.03 28.47 16C28.48 15.99 28.34 15.81 28.16 15.59C27.98 15.37 27.17 14.38 26.36 13.37L24.89 11.53L24.76 11.63ZM37.36 14.06C37.31 14.09 37.09 14.28 36.85 14.48C35.87 15.3 34.77 16.07 33.67 16.68C33.53 16.75 33.43 16.82 33.43 16.83C33.43 16.86 34.57 17.04 38.11 17.62C39.58 17.86 39.43 17.85 39.35 17.71C39.08 17.3 37.97 15.2 37.62 14.41C37.49 14.13 37.44 14.04 37.4 14.04C37.39 14.03 37.37 14.04 37.36 14.06Z" />
		<path id="Layer" fill-rule="evenodd" class="shp2" d="M20.6 13.19C20.83 14.08 21.92 14.37 22.67 14.66C23.61 14.99 24.81 15.27 25.44 15.4C26.65 15.67 28.47 15.98 29.69 16.19C33.1 16.77 36.19 17.28 40.97 18.02C43.22 18.37 46 18.85 47.26 19.1C53.96 20.43 59.25 22.21 63.35 24.5C66.32 26.17 68.75 28.18 70.76 30.66C71.44 31.52 72.02 32.32 72.85 33.62L73 33.85L72.05 33.99C62.91 35.39 46.84 39.69 37.07 43.37C30.29 45.91 24.76 48.39 19.84 51.08C17.71 52.25 16.8 52.78 16.14 53.28L15.1 53.63C22.17 47.82 26.75 42.6 28.92 37.86C30.14 35.22 30.63 32.94 30.57 30.35C30.47 26.32 29.35 23.4 26.78 20.44C26.22 19.79 21.57 15.26 21.57 15.26C21.12 14.84 20.73 14.43 20.59 14.1C20.37 13.56 20.6 13.19 20.6 13.19ZM23.81 16.21C26.04 17.96 27.97 20.14 29.19 22.29C29.33 22.53 29.44 22.71 29.45 22.7C29.46 22.7 29.36 22.28 29.22 21.79C28.87 20.5 27.82 17.13 27.74 17.05C27.73 17.05 27.21 16.91 26.58 16.75C26.47 16.72 26.35 16.69 26.24 16.66C26.12 16.63 26.01 16.6 25.89 16.57C25.78 16.54 25.66 16.51 25.55 16.48C25.43 16.45 25.32 16.42 25.21 16.39C24.6 16.22 24.09 16.06 23.69 15.93C23.47 15.85 23.31 15.79 23.3 15.8C23.3 15.81 23.51 16 23.81 16.21ZM28.43 17.22C28.43 17.22 28.42 17.22 28.42 17.22C28.44 17.28 28.53 17.48 28.63 17.69C29.34 19.2 30.12 21.35 30.5 22.8C30.55 23.02 30.61 23.2 30.61 23.2C30.61 23.2 30.87 22.95 31.18 22.65C31.93 21.9 32.97 21.06 34.13 20.29C34.59 19.98 35.98 19.15 36.32 18.97C36.48 18.89 36.6 18.82 36.6 18.8C36.6 18.78 36.33 18.71 35.99 18.66C33.95 18.32 30.77 17.71 28.99 17.31C28.71 17.25 28.48 17.22 28.43 17.22ZM28.42 17.21C28.42 17.22 28.42 17.22 28.42 17.22C28.42 17.22 28.42 17.21 28.42 17.21ZM37.47 18.94C37.38 18.91 34.52 21.12 33.46 22.05C32.91 22.54 31.61 23.84 31.61 23.9C31.61 23.92 32.33 24.14 33.22 24.38C34.78 24.82 36.59 25.35 37.71 25.71L38.25 25.88L38.28 25.78C38.3 25.73 38.33 25.32 38.35 24.88C38.41 23.31 38.23 21.62 37.85 20.1C37.64 19.32 37.53 18.96 37.47 18.94ZM38.19 19.05C38.18 19.06 38.24 19.21 38.32 19.38C39.05 21.07 39.44 23.08 39.44 25.06C39.44 25.42 39.45 25.73 39.46 25.73C39.47 25.73 39.92 25.44 40.46 25.08C42.49 23.72 44.54 22.61 47.29 21.36C47.99 21.05 48.21 20.93 48.15 20.91C48.02 20.85 45.91 20.41 44.46 20.13C42.51 19.76 38.22 19.02 38.19 19.05ZM49.29 21.24C49.24 21.2 46.95 22.47 45.54 23.33C43.76 24.39 40.4 26.61 40.48 26.68C40.49 26.7 40.85 26.84 41.27 27.02C42.77 27.65 44.15 28.32 45.36 29.03C45.68 29.21 45.97 29.37 45.99 29.36C46.01 29.35 46.21 29.04 46.43 28.65C47.67 26.48 48.68 24.17 49.06 22.62C49.18 22.12 49.32 21.27 49.29 21.24ZM50.08 21.36C50.05 21.36 50.02 21.52 50.01 21.72C49.83 23.83 49.11 26.3 47.99 28.67C47.86 28.96 47.75 29.2 47.77 29.2C47.79 29.2 48.06 29.1 48.37 28.97C52.07 27.47 55.91 26.28 60.4 25.25L60.93 25.12L60.17 24.78C58.33 23.94 55.52 22.91 53.06 22.18C52.07 21.89 50.17 21.36 50.08 21.36ZM31.17 25.71C31.16 25.72 31.19 25.97 31.22 26.26C31.55 28.55 31.6 30.8 31.36 32.55C31.35 32.64 31.36 32.7 31.38 32.7C31.41 32.7 31.8 32.33 32.27 31.89C33.85 30.36 35.16 29.16 36.53 28.02C36.86 27.73 37.15 27.49 37.15 27.48C37.15 27.42 34.62 26.57 33.43 26.24C32.65 26.02 31.2 25.68 31.17 25.71ZM61.65 25.74C61.63 25.72 60.29 26.1 59.02 26.5C56.61 27.24 53.4 28.39 51.04 29.35C49.69 29.89 47.92 30.65 47.92 30.69C47.92 30.7 48.01 30.78 48.13 30.86C48.24 30.95 48.59 31.23 48.9 31.49C50.56 32.87 51.96 34.4 53.13 36.15C53.27 36.38 53.41 36.57 53.42 36.57C53.43 36.57 53.77 36.13 54.19 35.61C54.6 35.09 55.83 33.53 56.93 32.16C59 29.55 59.92 28.36 60.55 27.46C60.99 26.84 61.67 25.76 61.65 25.74ZM62.46 25.95C62.45 25.95 62.45 25.95 62.46 25.95C62.44 25.98 62.23 26.42 61.99 26.93C60.28 30.37 58.83 32.3 55.65 35.36C55.14 35.85 54.73 36.26 54.75 36.26C54.78 36.26 55.1 36.19 55.46 36.1C60.87 34.8 66.5 33.87 70.89 33.53C71.46 33.49 71.94 33.45 71.94 33.45C71.96 33.44 70.59 32.02 70.04 31.48C68.07 29.56 65.59 27.69 63.05 26.24C62.75 26.06 62.5 25.94 62.46 25.95ZM39.21 28.33C39.18 28.33 39.14 28.43 39.1 28.59C38.67 30.58 37.92 32.63 36.98 34.34C36.7 34.85 36.69 34.89 36.73 34.89C36.74 34.89 37.16 34.64 37.66 34.34C39.41 33.27 41.09 32.35 43.05 31.36C43.67 31.06 44.17 30.8 44.16 30.79C44.09 30.73 42.68 29.98 41.74 29.51C40.72 28.99 39.36 28.36 39.21 28.33ZM37.86 28.58C37.82 28.55 35.76 30.21 34.78 31.05C33.41 32.22 31.62 33.84 31.62 33.92C31.62 33.94 31.84 34.07 32.13 34.21C32.84 34.58 33.39 34.99 34.07 35.64L34.65 36.21L34.91 35.79C35.05 35.55 35.3 35.12 35.47 34.83C36.17 33.58 36.89 31.92 37.31 30.59C37.53 29.89 37.89 28.61 37.86 28.58ZM46.15 31.99L45.79 32.55C43.97 35.28 41.53 38.08 38.77 40.61C37.7 41.6 37.75 41.55 37.81 41.55C37.85 41.55 38.25 41.4 38.73 41.23C43.04 39.64 46.74 38.46 51.52 37.14L52.36 36.9L52.24 36.76C52.01 36.51 50.86 35.48 50.27 34.99C49.21 34.1 47.83 33.09 46.67 32.32L46.15 31.99ZM43.97 32.53C43.94 32.51 41.92 33.53 40.62 34.22C38.7 35.26 35.66 36.99 35.47 37.17C35.41 37.22 35.46 37.33 35.7 37.81C36.26 38.96 36.58 40.31 36.58 41.57C36.58 41.81 36.59 41.97 36.62 41.96C36.65 41.95 37.09 41.44 37.62 40.82C38.87 39.34 40.68 37.06 41.71 35.71C42.56 34.57 43.99 32.55 43.97 32.53ZM30.57 36.3C30.34 37 30.02 37.8 29.69 38.48C29.33 39.24 28.98 39.84 28.3 40.89C28.19 41.05 28.22 41.03 29.14 40.3C30.02 39.6 31.52 38.46 32.51 37.75C32.87 37.49 33.14 37.27 33.12 37.25C32.59 36.81 31.99 36.41 31.32 36.04C31.05 35.89 30.81 35.77 30.78 35.77C30.76 35.77 30.65 36 30.57 36.3ZM34.3 38.52L34.28 38.52C34.26 38.53 34.06 38.77 33.84 39.04C31.81 41.52 29.11 44 25.99 46.27C25.59 46.56 25.27 46.8 25.27 46.81C25.27 46.82 25.69 46.62 26.2 46.36C26.71 46.11 27.49 45.74 27.94 45.53C29.54 44.8 31.9 43.82 34.45 42.82L35.88 42.27L35.86 42.06C35.75 41.1 35.29 39.91 34.69 39.03C34.41 38.61 34.35 38.51 34.3 38.52ZM27.56 42.39C26.99 42.79 26.92 42.87 26.52 43.38C25.93 44.15 25.4 44.78 24.71 45.52C23.63 46.7 23.54 46.8 23.61 46.76C23.64 46.74 23.92 46.56 24.23 46.36C26.71 44.8 28.7 43.19 30.72 41.13C31.53 40.31 32.72 38.96 32.68 38.92C32.64 38.88 29.1 41.28 27.56 42.39Z" />
	</g>
	<path id="Layer" fill-rule="evenodd" class="shp3" d="M-316.25 337.1L-316.25 337.08C-246.67 336.51 -204.88 386.07 -208.85 465.33C-210.36 491.95 -211.88 498.57 -222.47 519.97C-235.54 546.62 -254.23 564.01 -276.74 570.83C-283.57 572.91 -289.21 575.38 -289.21 576.51C-289.21 577.63 -277.29 590.47 -262.54 605.22L-235.86 632.11L-275.98 632.11L-298.1 606.19C-316.08 585.2 -322.3 580.11 -331.59 578.59C-375.45 571.59 -401.74 553.05 -418 517.91C-431.99 481.96 -433.68 435.25 -418.17 399.51C-400.05 360 -369.04 339.77 -323.06 337.32C-320.81 337.32 -318.53 337.1 -316.25 337.1ZM-281.08 544.37L-281.06 544.35C-251 529.78 -235.3 494.61 -238.16 447.72C-241.79 391.56 -269.54 361.67 -318.34 361.67C-351.23 361.67 -373.74 376.63 -390.76 409.16C-401.35 429.59 -402.67 474.96 -393.41 499.55C-385.08 522.04 -366.56 541.9 -347.44 548.93C-328.94 555.71 -300.6 553.83 -281.08 544.37ZM411.94 404.8L411.94 404.85L425.39 404.85L425.39 433.56L414.98 430.52C399.47 426.19 383.43 435.25 374.1 453.42C367.34 466.67 366.73 472.33 366.73 520.76L366.73 573.71L337.63 573.71L337.63 408.03L366.75 408.03L366.75 435.66L373.56 425.04C382.24 411.62 395.12 404.8 411.94 404.8ZM240.82 403.29C280.73 402.55 308.14 431.3 308.14 476.84L308.14 499.18L190.71 499.18C193.16 516.01 198.47 530.75 210.55 543.05C229.48 559.14 253.12 559.14 284.5 545.48L298.31 538.32L298.31 564.39C298.31 564.39 291.11 567.64 284.5 570.46C245.73 584.44 216.99 582.36 185.22 556.3C169.72 539.45 163.47 523.38 163.47 491.24C162.13 452.86 184.1 415.56 223.07 405.37C229.09 404.05 235.14 403.29 240.85 403.29L240.82 403.29ZM193.36 475.93L193.36 475.93C193.36 475.93 193.36 475.93 193.36 475.93L193.36 475.93ZM193.39 475.72L280.92 475.72C280.92 475.72 278.45 447.91 263.7 436.57C256.53 431.09 247.83 428.27 239.11 428.27C230.42 428.27 221.53 430.91 213.78 436.38C198.51 446.96 193.83 473.08 193.39 475.72ZM193.36 475.72L193.36 475.93C193.36 475.9 193.37 475.83 193.39 475.72L193.36 475.72ZM-508.76 446.05L-508.75 446.03C-461.33 474.37 -448.81 492.52 -452.44 527.13C-456.6 563.99 -500.64 586.7 -549.04 577.05C-568.56 573.28 -581.57 567.81 -581.57 567.81C-581.57 567.81 -582.35 544.72 -580.84 535.07C-580.44 535.07 -573.07 538.69 -564.36 543.03C-522 564.39 -480.95 552.5 -480.95 518.46C-480.95 501.98 -494.18 486.86 -524.11 469.45C-577.41 438.44 -592.16 410.64 -575.5 373.77C-564.16 348.79 -539.96 336.52 -502.53 337.08C-478.13 337.47 -461.11 344.84 -461.11 344.84L-461.33 375.12C-492.12 358.09 -547.72 351.87 -552.63 396.87C-554.34 413.13 -540.33 426.92 -508.76 446.05ZM669.7 402.9L669.63 402.94C709.53 402.18 736.94 430.96 736.94 476.28L736.94 498.62L619.71 498.62C622.16 515.64 627.43 530.21 639.58 542.49C658.44 558.58 682.08 558.58 713.52 544.96L727.32 537.76L727.32 563.87C727.32 563.87 720.14 567.08 713.55 569.9C674.58 583.9 645.84 581.8 614.07 555.71C598.57 538.89 592.34 522.97 592.34 490.88C590.85 452.49 612.77 415.19 651.7 405C657.99 403.68 664.02 402.9 669.7 402.9ZM622.24 475.35L709.78 475.35C709.78 475.35 707.3 447.35 692.56 436.01C685.38 430.5 676.64 427.68 667.96 427.68C659.27 427.68 650.38 430.33 642.65 435.81C627.37 446.62 622.66 472.82 622.24 475.35ZM622.23 475.35L622.21 475.54C622.21 475.54 622.22 475.47 622.24 475.35L622.23 475.35ZM88.4 446.42L88.4 446.46C135.67 474.82 148.16 492.97 144.57 527.41C140.42 564.28 96.36 586.96 47.91 577.29C28.46 573.32 15.6 568.05 15.6 568.05C15.6 568.05 14.82 544.95 16.34 535.31C16.77 535.31 24.14 538.88 32.82 543.22C75.17 564.78 116.2 552.7 116.2 518.65C116.2 502.17 102.97 487.25 73.09 469.86C19.96 438.85 5.02 411.05 21.65 374.18C33.01 349.2 57.21 336.93 94.64 337.49C119.04 337.84 136.06 345.21 136.06 345.21L135.85 375.49C105.05 358.46 49.45 352.21 44.55 397.23C42.86 413.5 56.82 427.34 88.4 446.42L88.4 446.42ZM840.82 404.41L854.26 404.41L854.26 433.19L843.85 430.15C828.35 425.8 812.3 434.88 802.98 453.03C796.19 466.26 795.6 471.94 795.6 520.35L795.6 573.3L766.5 573.3L766.5 407.67L795.62 407.67L795.62 435.25L802.43 424.67C810.96 411.24 823.99 404.41 840.82 404.41L840.82 404.41ZM-143.2 445.46L-143.2 546.07L-49.09 546.07L-49.09 573.67L-172.56 573.67L-172.56 339.94L-143.2 339.94L-143.2 445.46L-143.2 445.46ZM535.81 478.36L535.79 478.38C549.02 441.13 561.71 407.86 561.71 407.86L590.44 407.86L557.15 491.61L524.47 573.67C515.21 573.67 505.93 573.88 496.67 573.67C475.31 519.22 454.12 463.05 434.65 407.84L464.7 407.84L488.34 478.01L511.61 541.34L535.81 478.36ZM-75.55 276.25L-75.55 276.21C-80.27 276.21 -84.22 274.69 -87.26 271.66C-90.46 268.66 -91.98 264.72 -91.98 259.94C-91.98 255.39 -90.51 251.44 -87.26 248.23C-84.05 245.03 -80.1 243.51 -75.33 243.51C-70.62 243.51 -66.87 245.03 -63.62 248.06C-60.41 251.1 -58.72 255.04 -58.72 259.77C-58.72 264.5 -60.41 268.27 -63.62 271.48C-66.87 274.74 -70.82 276.25 -75.55 276.25ZM-90.07 259.77C-90.07 263.93 -88.56 267.53 -85.74 270.35C-82.92 273.21 -79.51 274.52 -75.33 274.52C-71.21 274.52 -67.78 273.17 -64.92 270.35C-62.1 267.53 -60.58 263.93 -60.58 259.77C-60.58 255.61 -62.1 252.18 -64.92 249.36C-67.78 246.54 -71.21 245.24 -75.33 245.24C-79.71 245.24 -83.13 246.54 -85.95 249.36C-88.77 252.18 -90.07 255.61 -90.07 259.77ZM-78.95 261.29L-79.32 261.29L-79.32 270.18L-82.35 270.18L-82.35 248.99L-76.33 248.99C-73.64 248.99 -71.55 249.58 -70.25 250.66C-69.1 251.62 -68.56 252.92 -68.56 254.65C-68.56 256.15 -68.91 257.47 -69.86 258.44C-70.82 259.57 -72.14 260.14 -73.81 260.53C-72.48 260.9 -71.36 262.22 -70.21 264.5L-67.39 270.18L-70.97 270.18L-73.25 265.06C-74.37 262.59 -75.7 261.29 -77.04 261.29L-78.95 261.29ZM-78.99 251.44L-78.99 258.64L-75.74 258.64C-72.92 258.64 -71.4 257.49 -71.4 255.04C-71.4 253.7 -71.6 252.96 -72.31 252.4C-73.05 251.83 -74.39 251.44 -76.3 251.44L-78.99 251.44ZM-563.97 259.4L-564.12 259.44L-564.12 314.83L-573.4 314.83L-573.4 232.21L-560.54 232.21L-535.21 290.26C-533.33 294.42 -532 297.83 -531.44 300.06L-531.05 300.06C-529.36 295.55 -528.04 292.15 -527.08 289.87L-501.17 232.4L-489.07 232.4L-489.07 315.03L-498.72 315.03L-498.72 259.44C-498.72 255.09 -498.52 249.62 -497.96 243.33L-498.17 243.33C-499.11 246.95 -499.87 249.56 -500.63 251.29L-528.82 314.83L-533.54 314.83L-561.73 251.86C-562.49 249.97 -563.43 247.13 -564.18 243.31L-564.36 243.31C-564.18 246.54 -563.97 252.03 -563.97 259.4ZM-459.59 259.56L-459.59 311.01L-467.92 311.01L-467.92 259.56L-459.59 259.56ZM-463.78 240.69C-465.47 240.69 -466.81 240.1 -468.12 238.95C-469.44 237.82 -470.02 236.5 -470.02 234.62C-470.02 232.92 -469.26 231.41 -468.12 230.28C-466.99 229.13 -465.47 228.54 -463.78 228.54C-462.07 228.54 -460.57 229.13 -459.4 230.28C-458.08 231.41 -457.51 232.92 -457.51 234.62C-457.51 236.35 -458.27 237.82 -459.42 238.95C-460.55 240.1 -462.02 240.69 -463.76 240.69L-463.78 240.69ZM-400.22 312.14C-404.77 314.79 -410.04 316.13 -416.48 316.31C-424.81 316.31 -431.6 313.45 -436.91 307.81C-442.01 302.32 -444.46 295.14 -444.46 286.6C-444.46 276.99 -441.64 269.03 -436.17 263.18C-430.66 257.32 -423.29 254.29 -413.84 254.29C-408.72 254.29 -404.19 255.24 -400.22 257.32L-400.22 266.97C-404.58 263.94 -409.31 262.42 -414.23 262.42C-420.26 262.42 -425.18 264.5 -428.98 268.66C-432.92 273 -434.83 278.68 -434.83 285.84C-434.83 292.67 -432.92 298.16 -429.34 302.1C-425.74 306.09 -420.82 308.17 -414.75 308.17C-409.67 308.17 -404.77 306.48 -400.22 303.08L-400.22 312.14ZM-376.39 284.71L-376.58 284.71L-376.58 314.98L-386.04 314.98L-386.04 256L-376.6 256L-376.6 268.08L-376.39 268.08C-375.06 263.74 -372.81 260.33 -369.99 258.1C-367.32 255.99 -364.29 254.85 -360.88 254.85C-358.43 254.85 -356.55 255.04 -355.25 255.61L-355.25 265.45C-356.92 264.13 -359.19 263.55 -362.4 263.55C-366.2 263.55 -369.4 265.26 -372.05 268.66C-374.87 272.44 -376.39 277.92 -376.39 284.71ZM-322.11 316.15L-322.11 316.13C-330.98 316.13 -337.98 313.29 -343.27 307.61C-348.39 302.12 -350.82 294.75 -350.82 285.86C-350.82 275.64 -347.83 267.69 -342.15 262.05C-336.84 256.93 -329.68 254.28 -320.79 254.28C-311.9 254.28 -305.09 256.93 -300.19 262.41C-295.24 267.9 -292.81 275.28 -292.81 284.92C-292.81 294.38 -295.46 301.97 -300.75 307.61C-306.06 313.29 -313.22 316.15 -322.11 316.15ZM-340.85 285.3C-340.85 292.49 -339.13 297.96 -335.55 301.95C-331.95 305.92 -327.25 308.02 -321.18 308.02C-314.93 308.02 -310.2 305.92 -306.99 301.95C-303.78 298.15 -302.27 292.49 -302.27 285.3C-302.27 277.73 -303.96 272.07 -307.36 268.1C-310.75 264.3 -315.3 262.41 -321.37 262.41C-327.23 262.41 -331.95 264.3 -335.55 268.1C-339.33 272.28 -341.21 278.14 -340.85 285.3ZM-251.41 311.01L-251.46 311.04C-255.23 314.44 -260.72 316.15 -267.72 316.52C-273.19 316.52 -278.13 315.4 -282.25 312.92L-282.25 302.73C-277.7 306.5 -272.6 308.37 -266.92 308.37C-259.55 308.37 -255.77 305.53 -255.77 300.02C-255.77 297.78 -256.53 295.9 -258.22 294.38C-259.94 292.86 -263.15 290.98 -267.88 288.89C-272.82 286.84 -276.38 284.54 -278.46 282.28C-280.93 279.64 -282.23 276.04 -282.23 271.7C-282.23 266.8 -280.34 262.64 -276.38 259.42C-272.6 256.2 -267.48 254.53 -261.41 254.53C-256.68 254.53 -252.54 255.44 -248.73 257.34L-248.73 266.8C-252.71 263.96 -257.07 262.61 -262.17 262.61C-265.42 262.61 -267.85 263.35 -269.76 264.87C-271.62 266.38 -272.58 268.27 -272.58 270.72C-272.58 273.39 -271.65 275.28 -270.13 276.79C-268.61 278.12 -265.79 279.81 -261.24 281.72C-256.1 283.8 -252.54 285.86 -250.24 288.13C-247.42 290.98 -245.9 294.57 -245.9 298.91C-245.9 303.86 -247.81 307.81 -251.41 311.01ZM-206.39 254.28L-206.35 254.26C-197.68 254.26 -190.87 256.91 -185.75 262.4C-180.85 267.88 -178.38 275.25 -178.38 284.9C-178.38 294.36 -181.02 301.95 -186.33 307.59C-191.65 313.27 -198.59 316.13 -207.69 316.13C-216.59 316.13 -223.57 313.29 -228.88 307.61C-233.98 302.13 -236.43 294.75 -236.43 285.86C-236.43 275.65 -233.39 267.69 -227.75 262.05C-222.44 256.93 -215.29 254.28 -206.39 254.28ZM-188.05 285.3L-188.07 285.3C-188.07 277.73 -189.76 272.07 -192.8 267.9C-196.2 264.13 -200.91 262.22 -206.76 262.22C-212.64 262.22 -217.37 264.13 -220.95 267.9C-224.74 271.85 -226.63 277.71 -226.63 285.3C-226.63 292.49 -224.92 297.96 -221.34 301.95C-217.74 305.92 -213.03 308.02 -206.96 308.02C-200.71 308.02 -195.99 305.92 -192.78 301.95C-189.57 298.15 -188.05 292.49 -188.05 285.3ZM-162.5 314.81L-162.57 314.84L-162.57 263.96L-172.55 263.96L-172.55 256.03L-162.57 256.03L-162.57 246.35C-162.57 239.71 -160.47 234.81 -156.5 231.04C-153.09 227.83 -148.93 226.31 -143.83 226.31C-140.99 226.31 -138.71 226.49 -137.02 227.25L-137.02 235.77C-138.71 234.81 -140.99 234.25 -143.22 234.25C-149.86 234.25 -153.07 238.41 -153.07 246.69L-153.07 255.8L-139.26 255.8L-139.26 263.74L-153.07 263.74L-153.07 314.81L-162.5 314.81ZM-123.75 298.72L-123.77 298.7L-123.77 263.72L-133.97 263.72L-133.97 255.78L-123.77 255.78L-123.77 241.42C-120.76 240.47 -117.57 239.52 -114.32 238.39L-114.32 255.78L-99.36 255.78L-99.36 263.72L-114.32 263.72L-114.32 297C-114.32 300.95 -113.56 303.82 -112.21 305.51C-110.89 307.22 -108.63 307.98 -105.43 307.98C-103.15 307.98 -101.09 307.37 -99.36 306.07L-99.36 314.18C-101.63 315.53 -104.47 316.13 -108.25 316.13C-118.65 316.13 -123.75 310.26 -123.75 298.72ZM891.13 407.45L891.11 407.45C894.32 410.48 896.03 414.43 896.2 419.2C896.2 423.91 894.51 427.66 891.32 430.91C888.07 434.12 884.1 435.64 879.39 435.64C874.62 435.64 870.68 434.12 867.47 431.09C864.28 428.05 862.76 424.1 862.76 419.38C862.76 414.82 864.28 410.85 867.49 407.67C870.7 404.41 874.65 402.89 879.42 402.89C884.12 402.89 887.92 404.41 891.13 407.45ZM889.61 429.79C892.65 426.92 893.95 423.54 893.95 419.16C893.95 415.04 892.43 411.61 889.61 408.75C886.75 405.93 883.32 404.63 879.2 404.63C874.84 404.63 871.44 405.93 868.62 408.75C865.76 411.61 864.46 415.04 864.46 419.16C864.46 423.34 865.98 426.92 868.79 429.79C871.66 432.6 875.08 433.9 879.2 433.9C883.37 433.9 886.79 432.6 889.61 429.79ZM881.17 420.12C882.28 420.52 883.37 421.66 884.32 424.06L887.14 429.74L883.54 429.74L881.29 424.64C880.12 422.17 878.82 420.87 877.51 420.87L875.63 420.87L875.63 429.76L872.59 429.76L872.59 408.6L878.62 408.6C881.29 408.6 883.39 409.18 884.69 410.27C885.84 411.2 886.38 412.55 886.38 414.24C886.38 415.75 886.03 417.08 885.08 418.05C884.16 418.97 882.83 419.73 881.17 420.12ZM881.07 420.09L881.11 420.13C881.13 420.13 881.15 420.13 881.17 420.12C881.14 420.11 881.1 420.1 881.07 420.09ZM879.01 418.23C881.83 418.23 883.34 417.1 883.34 414.65C883.34 413.31 883.17 412.57 882.41 412C881.65 411.42 880.33 411.07 878.44 411.07L875.78 411.07L875.78 418.23L879.03 418.23L879.01 418.23ZM351.44 253.35L351.44 232.17L344.44 232.17L344.44 229.52L361.09 229.52L361.09 232.17L354.09 232.17L354.09 253.35L351.44 253.35ZM367.34 232.73C367.34 232.74 367.34 232.75 367.34 232.76C367.34 232.75 367.34 232.74 367.34 232.73ZM367.34 232.76C367.49 233.72 367.49 235.4 367.49 237.44L367.34 237.46L367.34 253.38L364.67 253.38L364.67 229.52L368.49 229.52L375.86 246.18C376.4 247.48 376.79 248.23 376.95 248.99L377.16 248.99C377.53 247.69 378.12 246.55 378.29 245.96L385.66 229.52L389.07 229.52L389.07 253.33L386.25 253.33L386.25 237.28C386.25 236.13 386.25 234.62 386.42 232.73C386.06 233.7 385.88 234.44 385.66 235.01L377.51 253.35L376.21 253.35L368.08 235.18C367.9 234.62 367.52 233.87 367.34 232.76Z" />
</svg>